<svg xmlns="http://www.w3.org/2000/svg" width="1000" height="1000" viewBox="0 0 1000 1000"><rect width="100%" height="100%" fill="#DDDDDD"/><path fill="#999999" d="M236.515 528.52h13.78v9.8h-42.4v-9.8h15.53v-44.68q0-2.65.16-5.46l-11.03 9.22q-.95.74-1.88.93-.93.18-1.75.02t-1.46-.55q-.63-.4-.95-.88l-4.14-5.67 23.38-19.87h10.76v66.94Zm79.23-28.52q0 10.02-2.14 17.41-2.15 7.4-5.94 12.22-3.79 4.82-8.96 7.18-5.17 2.36-11.15 2.36-5.99 0-11.11-2.36-5.11-2.36-8.88-7.18-3.76-4.82-5.88-12.22-2.12-7.39-2.12-17.41 0-10.07 2.12-17.44 2.12-7.36 5.88-12.19 3.77-4.82 8.88-7.18 5.12-2.36 11.11-2.36 5.98 0 11.15 2.36t8.96 7.18q3.79 4.83 5.94 12.19 2.14 7.37 2.14 17.44Zm-13.51 0q0-8.32-1.22-13.78-1.22-5.46-3.26-8.69-2.04-3.23-4.69-4.53-2.65-1.3-5.51-1.3-2.81 0-5.44 1.3-2.62 1.3-4.63 4.53-2.02 3.23-3.21 8.69-1.19 5.46-1.19 13.78t1.19 13.78q1.19 5.46 3.21 8.69 2.01 3.24 4.63 4.53 2.63 1.3 5.44 1.3 2.86 0 5.51-1.3 2.65-1.29 4.69-4.53 2.04-3.23 3.26-8.69 1.22-5.46 1.22-13.78Zm74.99 0q0 10.02-2.14 17.41-2.15 7.4-5.94 12.22-3.79 4.82-8.96 7.18-5.17 2.36-11.15 2.36-5.99 0-11.11-2.36-5.11-2.36-8.88-7.18-3.76-4.82-5.88-12.22-2.12-7.39-2.12-17.41 0-10.07 2.12-17.44 2.12-7.36 5.88-12.19 3.77-4.82 8.88-7.18 5.12-2.36 11.11-2.36 5.98 0 11.15 2.36t8.96 7.18q3.79 4.83 5.94 12.19 2.14 7.37 2.14 17.44Zm-13.51 0q0-8.32-1.22-13.78-1.22-5.46-3.26-8.69-2.04-3.23-4.69-4.53-2.65-1.3-5.51-1.3-2.81 0-5.44 1.3-2.62 1.3-4.63 4.53-2.02 3.23-3.21 8.69-1.19 5.46-1.19 13.78t1.19 13.78q1.19 5.46 3.21 8.69 2.01 3.24 4.63 4.53 2.63 1.3 5.44 1.3 2.86 0 5.51-1.3 2.65-1.29 4.69-4.53 2.04-3.23 3.26-8.69 1.22-5.46 1.22-13.78Zm74.99 0q0 10.02-2.14 17.41-2.15 7.4-5.94 12.22-3.79 4.82-8.96 7.18-5.17 2.36-11.15 2.36-5.99 0-11.11-2.36-5.11-2.36-8.88-7.18-3.76-4.82-5.88-12.22-2.12-7.39-2.12-17.41 0-10.07 2.12-17.44 2.12-7.36 5.88-12.19 3.77-4.82 8.88-7.18 5.12-2.36 11.11-2.36 5.98 0 11.15 2.36t8.96 7.18q3.79 4.83 5.94 12.19 2.14 7.37 2.14 17.44Zm-13.51 0q0-8.32-1.22-13.78-1.22-5.46-3.26-8.69-2.04-3.23-4.69-4.53-2.65-1.3-5.51-1.3-2.81 0-5.44 1.3-2.62 1.3-4.63 4.53-2.02 3.23-3.21 8.69-1.19 5.46-1.19 13.78t1.19 13.78q1.19 5.46 3.21 8.69 2.01 3.24 4.63 4.53 2.63 1.3 5.44 1.3 2.86 0 5.51-1.3 2.65-1.29 4.69-4.53 2.04-3.23 3.26-8.69 1.22-5.46 1.22-13.78Zm97.68 20.78-6.95 6.83-17.96-17.96-18.13 18.07-6.94-6.84 18.12-18.18-17.28-17.27 6.89-6.89 17.28 17.27 17.17-17.17 7 6.89-17.22 17.23 18.02 18.02Zm72.55 7.74h13.78v9.8h-42.4v-9.8h15.53v-44.68q0-2.65.16-5.46l-11.02 9.22q-.96.74-1.88.93-.93.18-1.75.02-.83-.16-1.46-.55-.64-.4-.96-.88l-4.13-5.67 23.37-19.87h10.76v66.94Zm79.24-28.52q0 10.02-2.15 17.41-2.15 7.4-5.93 12.22-3.79 4.82-8.96 7.18-5.17 2.36-11.16 2.36t-11.1-2.36q-5.12-2.36-8.88-7.18-3.76-4.82-5.88-12.22-2.12-7.39-2.12-17.41 0-10.07 2.12-17.44 2.12-7.36 5.88-12.19 3.76-4.82 8.88-7.18 5.11-2.36 11.1-2.36 5.99 0 11.16 2.36t8.96 7.18q3.78 4.83 5.93 12.19 2.15 7.37 2.15 17.44Zm-13.52 0q0-8.32-1.22-13.78-1.22-5.46-3.26-8.69-2.04-3.23-4.69-4.53-2.65-1.3-5.51-1.3-2.81 0-5.43 1.3-2.62 1.3-4.64 4.53-2.01 3.23-3.2 8.69-1.2 5.46-1.2 13.78t1.2 13.78q1.19 5.46 3.2 8.69 2.02 3.24 4.64 4.53 2.62 1.3 5.43 1.3 2.86 0 5.51-1.3 2.65-1.29 4.69-4.53 2.04-3.23 3.26-8.69 1.22-5.46 1.22-13.78Zm75 0q0 10.02-2.15 17.41-2.15 7.4-5.93 12.22-3.79 4.82-8.96 7.18-5.17 2.36-11.16 2.36t-11.1-2.36q-5.12-2.36-8.88-7.18-3.76-4.82-5.88-12.22-2.12-7.39-2.12-17.41 0-10.07 2.12-17.44 2.12-7.36 5.88-12.19 3.76-4.82 8.88-7.18 5.11-2.36 11.1-2.36 5.99 0 11.16 2.36t8.96 7.18q3.78 4.83 5.93 12.19 2.15 7.37 2.15 17.44Zm-13.52 0q0-8.32-1.22-13.78-1.22-5.46-3.26-8.69-2.04-3.23-4.69-4.53-2.65-1.3-5.51-1.3-2.81 0-5.43 1.3-2.62 1.3-4.64 4.53-2.01 3.23-3.2 8.69-1.2 5.46-1.2 13.78t1.2 13.78q1.19 5.46 3.2 8.69 2.02 3.24 4.64 4.53 2.62 1.3 5.43 1.3 2.86 0 5.51-1.3 2.65-1.29 4.69-4.53 2.04-3.23 3.26-8.69 1.22-5.46 1.22-13.78Zm75 0q0 10.02-2.15 17.41-2.15 7.4-5.93 12.22-3.79 4.82-8.96 7.18-5.17 2.36-11.16 2.36t-11.1-2.36q-5.12-2.36-8.88-7.18-3.76-4.82-5.88-12.22-2.12-7.39-2.12-17.41 0-10.07 2.12-17.44 2.12-7.36 5.88-12.19 3.76-4.82 8.88-7.18 5.11-2.36 11.1-2.36 5.99 0 11.16 2.36t8.96 7.18q3.78 4.83 5.93 12.19 2.15 7.37 2.15 17.44Zm-13.52 0q0-8.32-1.22-13.78-1.22-5.46-3.26-8.69-2.04-3.23-4.69-4.53-2.65-1.3-5.51-1.3-2.81 0-5.43 1.3-2.62 1.3-4.64 4.53-2.01 3.23-3.2 8.69-1.2 5.46-1.2 13.78t1.2 13.78q1.19 5.46 3.2 8.69 2.02 3.24 4.64 4.53 2.62 1.3 5.43 1.3 2.86 0 5.51-1.3 2.65-1.29 4.69-4.53 2.04-3.23 3.26-8.69 1.22-5.46 1.22-13.78Z"/></svg>